<svg width="62" height="62" viewBox="0 0 62 62" fill="none" xmlns="http://www.w3.org/2000/svg">
<circle cx="31" cy="31" r="31" fill="#6532F8"/>
<path d="M29.7277 45.9367C29.3745 45.5737 29.1896 45.1116 29.1729 44.5506C29.1562 43.9895 29.3251 43.5275 29.6795 43.1644L39.1177 33.4615H17.5929C17.0471 33.4615 16.5893 33.2714 16.2195 32.8912C15.8497 32.511 15.6654 32.041 15.6667 31.4813C15.6667 30.9202 15.8516 30.4496 16.2214 30.0694C16.5913 29.6892 17.0484 29.4997 17.5929 29.5011H39.1177L29.6795 19.7981C29.3264 19.4351 29.1575 18.973 29.1729 18.412C29.1883 17.8509 29.3733 17.3889 29.7277 17.0258C30.0808 16.6628 30.5302 16.4813 31.076 16.4813C31.6217 16.4813 32.0712 16.6628 32.4243 17.0258L45.137 30.0951C45.3296 30.2601 45.4663 30.4667 45.5472 30.7149C45.6281 30.9631 45.6679 31.2186 45.6667 31.4813C45.6667 31.7453 45.6269 31.9928 45.5472 32.2238C45.4676 32.4549 45.3309 32.6694 45.137 32.8674L32.4243 45.9367C32.0712 46.2997 31.6217 46.4813 31.076 46.4813C30.5302 46.4813 30.0808 46.2997 29.7277 45.9367Z" fill="#F3F6F9"/>
</svg>
